<svg width="19" height="21" viewBox="0 0 19 21" fill="none" xmlns="http://www.w3.org/2000/svg">
    <path fill-rule="evenodd" clip-rule="evenodd" d="M11.6931 4.20039C11.3467 4.20039 11.0664 3.92752 11.0664 3.59045C11.0664 3.25337 11.3467 2.98173 11.6931 2.98173C12.0394 2.98173 12.3198 3.25337 12.3198 3.59045C12.3198 3.92752 12.0394 4.20039 11.6931 4.20039ZM6.68193 4.20039C6.33559 4.20039 6.05523 3.92752 6.05523 3.59045C6.05523 3.25337 6.33559 2.98173 6.68193 2.98173C7.02827 2.98173 7.30865 3.25337 7.30865 3.59045C7.30865 3.92752 7.02827 4.20039 6.68193 4.20039ZM12.0635 1.75812L12.2969 1.41488L12.5304 1.07656L13.0505 0.315978C13.1152 0.222139 13.0886 0.0961857 12.9922 0.0344497C12.897 -0.028521 12.7663 -0.00259225 12.7042 0.0912467L11.91 1.24818L11.6715 1.59638C10.9167 1.31116 10.0755 1.15189 9.1875 1.15189C8.30072 1.15189 7.45835 1.31116 6.7035 1.59638L6.46626 1.24818L6.23157 0.906165L5.67336 0.0912467C5.60866 -0.00259225 5.47926 -0.0272864 5.38285 0.0344497C5.2877 0.0961857 5.26106 0.222139 5.32449 0.315978L5.84463 1.07656L6.07806 1.41488L6.31276 1.75812C4.54047 2.56192 3.3416 4.08433 3.3416 5.82652H15.0334C15.0334 4.08433 13.8345 2.56192 12.0635 1.75812ZM3.43168 6.63898H3.3416V15.5808C3.3416 16.2908 3.93406 16.8686 4.66479 16.8686H5.61881C5.58582 16.9761 5.56807 17.0884 5.56807 17.2069V19.7813C5.56807 20.4543 6.13007 21 6.82148 21C7.51289 21 8.0749 20.4543 8.0749 19.7813V17.2069C8.0749 17.0884 8.05588 16.9761 8.02416 16.8686H10.3508C10.3191 16.9761 10.3014 17.0884 10.3014 17.2069V19.7813C10.3014 20.4543 10.8621 21 11.5535 21C12.2462 21 12.8082 20.4543 12.8082 19.7813V17.2069C12.8082 17.0884 12.7892 16.9761 12.7562 16.8686H13.7115C14.4422 16.8686 15.0334 16.2908 15.0334 15.5808V6.63898H3.43168ZM1.25342 6.63898C0.560742 6.63898 0 7.18472 0 7.85765V13.0743C0 13.7472 0.560742 14.293 1.25342 14.293C1.94483 14.293 2.50557 13.7472 2.50557 13.0743V7.85765C2.50557 7.18472 1.94483 6.63898 1.25342 6.63898ZM17.1228 6.63898C16.4302 6.63898 15.8694 7.18472 15.8694 7.85765V13.0743C15.8694 13.7472 16.4302 14.293 17.1228 14.293C17.8143 14.293 18.375 13.7472 18.375 13.0743V7.85765C18.375 7.18472 17.8143 6.63898 17.1228 6.63898Z" fill="#000347"/>
</svg>
