<svg width="449" height="840" viewBox="0 0 449 840" fill="none" xmlns="http://www.w3.org/2000/svg">
    <path d="M155.572 834C102.347 797.41 50.031 738.553 19.4444 680.268C8.51033 659.432 0.292753 629.667 10.9998 606.774C35.8025 553.743 98.7911 639.23 117.064 662.456C123.499 670.636 132.023 681.329 136.656 690.816C142.521 702.826 127.948 672.167 126.86 670.065C106.134 630.025 86.2404 588.783 73.6589 545.212C53.7292 476.192 50.0582 405.355 44.6094 334.068C41.65 295.35 32.7205 247.036 41.4004 208.35C43.9672 196.91 52.3568 180.83 63.6943 176.531C98.2313 163.434 103.939 230.195 108.451 251.754C112.588 271.522 114.292 291.416 119.091 311.068C124.38 332.728 133.138 354.521 136.656 376.435C138.905 390.446 142.471 404.276 146.283 417.937C147.788 423.332 146.261 406.606 144.932 401.163C138.252 373.807 139.156 343.163 138.007 315.219C135.618 257.127 137.331 198.701 137.331 140.562C137.331 125.848 131.915 98.0562 141.892 85.5715C151.719 73.2727 156.651 89.6475 160.301 98.3681C191.87 173.789 186.701 258.196 205.733 336.143C207.881 344.942 210.293 354.878 210.293 363.984C210.293 388.297 210.328 361.385 209.618 350.842C206.729 307.961 207.253 265.16 207.253 222.184C207.253 180.748 204.705 138.181 207.591 96.8117C209.003 76.5639 214.526 49.6346 225.493 32.3099C228.887 26.9495 237.35 6.38808 243.734 6.02497C269.015 4.58692 271.094 65.6754 271.094 80.7295C271.094 161.42 274.067 245.412 285.619 325.248C287.775 340.147 283.289 356.794 286.464 371.42C291.605 395.11 286.295 322.885 286.295 298.618C286.295 258.121 278.27 208.099 290.855 169.441C295.766 154.357 301.699 139.706 307.575 124.999C311.802 114.421 320.065 110.833 325.14 102.518C338.749 80.224 346.814 132.488 348.616 139.871C359.06 182.645 356.216 227.929 356.216 271.641C356.216 295.894 362.296 319.927 362.296 343.752C362.296 359.053 363.665 317.186 364.661 311.068C370.452 275.494 375.52 206.571 422.422 208.35C455.714 209.612 439.865 284.257 434.582 300.693C424.362 332.489 410.514 361.715 396.751 391.998C357.516 478.325 330.908 568.107 306.393 659.689C292.436 711.83 289.335 758.973 289.335 812.211" stroke="current" stroke-width="12" stroke-linecap="round" stroke-linejoin="round"/>
</svg>
