<svg width="18" height="21" viewBox="0 0 18 21" fill="none" xmlns="http://www.w3.org/2000/svg">
    <path fill-rule="evenodd" clip-rule="evenodd" d="M11.8889 3.40921C12.5738 2.52511 13.093 1.27552 12.9052 0C11.7859 0.077791 10.4775 0.793972 9.71403 1.72746C9.0181 2.57328 8.44614 3.83153 8.66952 5.05272C9.89322 5.091 11.1562 4.35752 11.8889 3.40921ZM17.9375 15.4075C17.4478 16.4991 17.2121 16.9868 16.5812 17.9537C15.7012 19.3033 14.4603 20.9838 12.9212 20.9962C11.5551 21.011 11.2028 20.1009 9.34826 20.112C7.49368 20.1219 7.10706 21.0134 5.73853 20.9998C4.20061 20.9863 3.02477 19.4699 2.14474 18.1203C-0.317397 14.3493 -0.576376 9.92266 0.9419 7.56794C2.022 5.89606 3.72561 4.91811 5.32612 4.91811C6.95486 4.91811 7.97973 5.81704 9.32862 5.81704C10.637 5.81704 11.4336 4.91565 13.3176 4.91565C14.7438 4.91565 16.2548 5.69726 17.3299 7.04563C13.8049 8.98917 14.3756 14.053 17.9375 15.4075Z" fill="#000347"/>
</svg>
